<?xml version="1.0" encoding="UTF-8"?>
<svg width="60" height="60" viewBox="0 0 60 60" xmlns="http://www.w3.org/2000/svg">
    <!-- 植物主体 -->
    <g fill="#FF1493">
        <path d="M20,20 C20,10 40,10 40,20 C40,30 30,40 30,50 C30,40 20,30 20,20 Z"/>
    </g>
    <!-- 叶子 -->
    <path d="M15,35 C10,30 10,20 15,15 C20,10 30,10 35,15" fill="#32CD32" stroke="#228B22" stroke-width="2"/>
    <path d="M45,35 C50,30 50,20 45,15 C40,10 30,10 25,15" fill="#32CD32" stroke="#228B22" stroke-width="2"/>
    <!-- 牙齿 -->
    <g fill="#FFFFFF">
        <path d="M25,25 L27,28 L29,25 Z"/>
        <path d="M31,25 L33,28 L35,25 Z"/>
        <path d="M27,30 L29,33 L31,30 Z"/>
        <path d="M33,30 L35,33 L37,30 Z"/>
    </g>
    <!-- 眼睛 -->
    <g fill="#000">
        <circle cx="25" cy="20" r="2"/>
        <circle cx="35" cy="20" r="2"/>
    </g>
</svg> 