<?xml version="1.0" encoding="UTF-8"?>
<svg width="60" height="60" viewBox="0 0 60 60" xmlns="http://www.w3.org/2000/svg">
    <!-- 花瓣 -->
    <g fill="#FFD700">
        <path d="M30,5 C35,5 40,10 40,15 C40,20 35,25 30,25 C25,25 20,20 20,15 C20,10 25,5 30,5 Z"/>
        <path d="M30,35 C35,35 40,40 40,45 C40,50 35,55 30,55 C25,55 20,50 20,45 C20,40 25,35 30,35 Z"/>
        <path d="M5,30 C5,25 10,20 15,20 C20,20 25,25 25,30 C25,35 20,40 15,40 C10,40 5,35 5,30 Z"/>
        <path d="M35,30 C35,25 40,20 45,20 C50,20 55,25 55,30 C55,35 50,40 45,40 C40,40 35,35 35,30 Z"/>
    </g>
    <!-- 花心 -->
    <circle cx="30" cy="30" r="15" fill="#8B4513"/>
    <!-- 笑脸 -->
    <g fill="#000">
        <circle cx="25" cy="25" r="2"/>
        <circle cx="35" cy="25" r="2"/>
        <path d="M25,35 Q30,40 35,35" stroke="#000" fill="none" stroke-width="2"/>
    </g>
</svg> 